<svg width="120" height="120" viewBox="0 0 120 120" fill="none" xmlns="http://www.w3.org/2000/svg">
<path d="M60 120C93.1371 120 120 93.1371 120 60C120 26.8629 93.1371 0 60 0C26.8629 0 0 26.8629 0 60C0 93.1371 26.8629 120 60 120Z" fill="#FFCB17"/>
<path d="M60 120C93.1371 120 120 93.1371 120 60C120 26.8629 93.1371 0 60 0C26.8629 0 0 26.8629 0 60C0 93.1371 26.8629 120 60 120Z" fill="url(#paint0_linear)" fill-opacity="0.3"/>
<path d="M49.9849 21C31.7679 21 17 32.9704 17 47.7363C17 53.2443 19.0551 58.3634 22.5772 62.6173V82.2978L34.6691 71.422C39.246 73.3703 44.4565 74.473 49.9849 74.473C68.202 74.473 82.9699 62.5026 82.9699 47.7368C82.9699 32.9709 68.202 21 49.9849 21V21Z" fill="#FE6A16"/>
<path d="M49.9849 21C31.7679 21 17 32.9704 17 47.7363C17 53.2443 19.0551 58.3634 22.5772 62.6173V82.2978L34.6691 71.422C39.246 73.3703 44.4565 74.473 49.9849 74.473C68.202 74.473 82.9699 62.5026 82.9699 47.7368C82.9699 32.9709 68.202 21 49.9849 21V21Z" fill="url(#paint1_linear)" fill-opacity="0.3"/>
<path d="M70.4192 38.4018C88.6363 38.4018 103.404 50.3722 103.404 65.138C103.404 70.646 101.349 75.7652 97.827 80.0191V99.6996L85.7353 88.8238C81.1585 90.7721 75.9479 91.8746 70.4195 91.8746C52.2025 91.8746 37.4346 79.9042 37.4346 65.1383C37.4346 50.3724 52.2022 38.4018 70.4192 38.4018V38.4018Z" fill="white"/>
<path d="M54.8645 70.2265C57.6885 70.2265 59.9778 67.9373 59.9778 65.1133C59.9778 62.2893 57.6885 60 54.8645 60C52.0405 60 49.7512 62.2893 49.7512 65.1133C49.7512 67.9373 52.0405 70.2265 54.8645 70.2265Z" fill="#FE6A16"/>
<path d="M70.4193 70.2265C73.2433 70.2265 75.5326 67.9373 75.5326 65.1133C75.5326 62.2893 73.2433 60 70.4193 60C67.5953 60 65.306 62.2893 65.306 65.1133C65.306 67.9373 67.5953 70.2265 70.4193 70.2265Z" fill="#FE6A16"/>
<path d="M85.7941 70.2265C88.618 70.2265 90.9073 67.9373 90.9073 65.1133C90.9073 62.2893 88.618 60 85.7941 60C82.9701 60 80.6808 62.2893 80.6808 65.1133C80.6808 67.9373 82.9701 70.2265 85.7941 70.2265Z" fill="#FE6A16"/>
<defs>
<linearGradient id="paint0_linear" x1="60" y1="0" x2="60" y2="120" gradientUnits="userSpaceOnUse">
<stop stop-color="white"/>
<stop offset="1" stop-color="white" stop-opacity="0"/>
</linearGradient>
<linearGradient id="paint1_linear" x1="49.9849" y1="21" x2="49.9849" y2="82.2978" gradientUnits="userSpaceOnUse">
<stop stop-color="white"/>
<stop offset="1" stop-color="white" stop-opacity="0"/>
</linearGradient>
</defs>
</svg>
