<svg width="121" height="121" viewBox="0 0 121 121" fill="none" xmlns="http://www.w3.org/2000/svg">
<path d="M60.5 121C93.9132 121 121 93.9132 121 60.5C121 27.0868 93.9132 0 60.5 0C27.0868 0 0 27.0868 0 60.5C0 93.9132 27.0868 121 60.5 121Z" fill="#D75746"/>
<path d="M60.5 121C93.9132 121 121 93.9132 121 60.5C121 27.0868 93.9132 0 60.5 0C27.0868 0 0 27.0868 0 60.5C0 93.9132 27.0868 121 60.5 121Z" fill="url(#paint0_linear)" fill-opacity="0.3"/>
<path d="M65.4751 23.3154C53.206 21.7632 41.3795 25.9849 33.0101 34.9905C24.6558 43.9961 21.3036 56.1736 23.8159 68.4111C26.7331 82.5832 37.6973 93.8009 51.7512 96.9952C54.6909 97.6701 57.6307 98 60.533 98C66.3 98 71.9246 96.6878 77.1291 94.1083C78.9815 93.186 79.7389 90.9365 78.824 89.0768C77.8941 87.2172 75.6593 86.4749 73.7919 87.3822C67.5299 90.4941 60.4805 91.2889 53.416 89.6842C42.3919 87.1797 33.4526 78.0166 31.1653 66.9039C29.1404 57.0659 31.8252 47.2955 38.5072 40.0894C45.1967 32.8909 54.6684 29.4941 64.5151 30.7539C79.334 32.6735 90.5006 46.1257 90.5006 62.0599V64.242C90.5006 68.3811 87.1409 71.7404 83.0012 71.7404C78.8615 71.7404 75.5018 68.3811 75.5018 64.242V49.2451C75.5018 47.1755 73.8219 45.4958 71.7521 45.4958C70.2147 45.4958 68.9023 46.4256 68.3248 47.7454C66.09 46.3357 63.4652 45.4958 60.503 45.4958C51.6687 45.4958 45.5041 52.4319 45.5041 62.3674C45.5041 72.3028 51.6687 79.2389 60.503 79.2389C65.1601 79.2389 69.0373 77.2743 71.6996 73.99C74.4519 77.1768 78.4715 79.2389 83.0012 79.2389C91.273 79.2389 98 72.5128 98 64.242V62.0599C98 42.369 84.0211 25.7149 65.4751 23.3154ZM60.503 71.7404C55.8758 71.7404 53.0036 68.1487 53.0036 62.3674C53.0036 56.586 55.8758 52.9943 60.503 52.9943C65.1301 52.9943 68.0024 56.586 68.0024 62.3674C68.0024 68.1487 65.1301 71.7404 60.503 71.7404Z" fill="#FAFAFA"/>
<defs>
<linearGradient id="paint0_linear" x1="60.5" y1="0" x2="60.5" y2="121" gradientUnits="userSpaceOnUse">
<stop stop-color="white"/>
<stop offset="1" stop-color="white" stop-opacity="0"/>
</linearGradient>
</defs>
</svg>
