<svg width="122" height="121" viewBox="0 0 122 121" fill="none" xmlns="http://www.w3.org/2000/svg">
<path d="M105.952 0H15.2019C6.86047 0 0.0769043 6.78356 0.0769043 15.125V105.875C0.0769043 114.216 6.86047 121 15.2019 121H105.952C114.293 121 121.077 114.216 121.077 105.875V15.125C121.077 6.78356 114.293 0 105.952 0Z" fill="#1976D2"/>
<path d="M105.952 0H15.2019C6.86047 0 0.0769043 6.78356 0.0769043 15.125V105.875C0.0769043 114.216 6.86047 121 15.2019 121H105.952C114.293 121 121.077 114.216 121.077 105.875V15.125C121.077 6.78356 114.293 0 105.952 0Z" fill="url(#paint0_linear)" fill-opacity="0.3"/>
<path d="M102.171 60.5H83.2644V45.375C83.2644 41.2005 86.6524 41.5937 90.8269 41.5937H98.3894V22.6875H83.2644C70.7333 22.6875 60.5769 32.8439 60.5769 45.375V60.5H45.4519V79.4062H60.5769V121H83.2644V79.4062H94.6081L102.171 60.5Z" fill="#FAFAFA"/>
<defs>
<linearGradient id="paint0_linear" x1="60.5769" y1="0" x2="60.5769" y2="121" gradientUnits="userSpaceOnUse">
<stop stop-color="white"/>
<stop offset="1" stop-color="white" stop-opacity="0"/>
</linearGradient>
</defs>
</svg>
