<svg width="122" height="121" viewBox="0 0 122 121" fill="none" xmlns="http://www.w3.org/2000/svg">
<path d="M8.73899 8.40066C-0.74228 18.247 1.19821 28.7065 1.19821 60.4821C1.19821 86.8696 -3.40669 113.322 20.6936 119.55C28.2193 121.485 94.8999 121.485 102.415 119.54C112.45 116.951 120.614 108.814 121.73 94.625C121.886 92.6447 121.886 28.3547 121.725 26.3341C120.538 11.2204 111.233 2.50996 98.9719 0.745769C96.1617 0.338647 95.5986 0.218019 81.1807 0.192888C30.0392 0.218019 18.8285 -2.05885 8.73899 8.40066V8.40066Z" fill="url(#paint0_linear)"/>
<path d="M61.3473 15.1687C42.7618 15.1687 25.113 13.5168 18.3718 30.8038C15.5873 37.9437 15.9917 47.2163 15.9917 60.4936C15.9917 72.1445 15.618 83.0947 18.3718 90.1783C25.0976 107.476 42.8898 105.818 61.3371 105.818C79.1343 105.818 97.4844 107.67 104.307 90.1783C107.097 82.9668 106.688 73.8323 106.688 60.4936C106.688 42.7872 107.665 31.3562 99.0712 22.774C90.3696 14.0793 78.602 15.1687 61.3268 15.1687H61.3473ZM57.2832 23.3366C96.0512 23.2753 100.986 18.9688 98.2624 78.7934C97.295 99.9521 81.1715 97.6301 61.3524 97.6301C25.2153 97.6301 24.1763 96.597 24.1763 60.4732C24.1763 23.9299 27.0427 23.3571 57.2832 23.3264V23.3366ZM85.5582 30.8601C82.5536 30.8601 80.1171 33.2946 80.1171 36.2968C80.1171 39.299 82.5536 41.7336 85.5582 41.7336C88.5628 41.7336 90.9992 39.299 90.9992 36.2968C90.9992 33.2946 88.5628 30.8601 85.5582 30.8601V30.8601ZM61.3473 37.2174C48.4844 37.2174 38.0578 47.6408 38.0578 60.4936C38.0578 73.3464 48.4844 83.7647 61.3473 83.7647C74.2103 83.7647 84.6317 73.3464 84.6317 60.4936C84.6317 47.6408 74.2103 37.2174 61.3473 37.2174V37.2174ZM61.3473 45.3853C81.3353 45.3853 81.3609 75.6019 61.3473 75.6019C41.3644 75.6019 41.3337 45.3853 61.3473 45.3853Z" fill="white"/>
<defs>
<linearGradient id="paint0_linear" x1="8.97034" y1="113.117" x2="121.085" y2="16.0638" gradientUnits="userSpaceOnUse">
<stop stop-color="#FFDD55"/>
<stop offset="0.5" stop-color="#FF543E"/>
<stop offset="1" stop-color="#C837AB"/>
</linearGradient>
</defs>
</svg>
