<svg width="123" height="121" viewBox="0 0 123 121" fill="none" xmlns="http://www.w3.org/2000/svg">
<rect x="32.6187" y="21.3616" width="60.0779" height="92.1195" fill="white"/>
<path fill-rule="evenodd" clip-rule="evenodd" d="M52.5553 0.483293C26.6427 4.67314 7.15418 23.0455 1.61039 48.5105C0.232408 54.8391 0.232408 66.1854 1.61039 72.5139C6.89638 96.7961 24.9275 114.714 49.3766 119.982C55.6973 121.344 67.1216 121.339 73.5321 119.972C86.1905 117.273 96.4619 111.623 105.3 102.5C113.712 93.8143 118.742 84.3778 121.283 72.5139C122.574 66.4866 122.669 55.7138 121.486 49.4589C116.855 24.9757 97.4486 5.61722 72.7958 0.889013C67.6363 -0.100149 57.4304 -0.305176 52.5553 0.483293ZM64.3185 28.9072C69.2861 29.8109 73.4968 32.9995 76.0033 37.7554C77.2744 40.1668 77.3743 40.6718 77.3743 44.6908C77.3743 48.7129 77.2748 49.214 75.9972 51.644C69.6307 63.7506 53.2781 63.7506 46.9116 51.644C45.6318 49.2097 45.5349 48.7203 45.5419 44.6908C45.5484 40.8322 45.6824 40.0896 46.7602 37.9297C48.9805 33.4811 53.34 30.0125 57.9525 29.0251C61.0823 28.3549 61.2659 28.3515 64.3185 28.9072ZM58.069 37.3883C53.6454 39.5552 52.0161 45.0406 54.6452 48.9171C58.9348 55.2426 68.5908 53.0411 69.2119 45.5959C69.4636 42.5825 69.1644 41.4208 67.6887 39.6778C65.3825 36.9544 61.057 35.9249 58.069 37.3883ZM47.2623 62.2634C57.019 66.7424 65.3018 66.7935 75.2015 62.4355C77.6042 61.3779 80.156 60.5135 80.8722 60.5153C82.4112 60.5183 84.5067 61.7892 85.2919 63.1954C86.0518 64.5564 86.0221 67.2218 85.23 68.7441C84.4932 70.1598 78.3457 73.4563 74.2205 74.6479L71.8148 75.3427L75.9653 79.5226C78.248 81.8217 80.3335 84.1286 80.5996 84.6492C81.8912 87.1754 80.4735 90.8611 77.7795 91.9799C74.7788 93.2257 73.6133 92.6067 67.2342 86.3782L61.4544 80.735L55.6746 86.3782C49.2955 92.6067 48.1299 93.2257 45.1292 91.9799C42.4352 90.8611 41.0175 87.1754 42.3092 84.6492C42.5752 84.1286 44.6507 81.8317 46.9208 79.5451L51.0486 75.3882L48.0724 74.4025C43.3936 72.8529 38.3951 70.1204 37.6618 68.7112C36.8849 67.2179 36.8626 64.5456 37.6169 63.1954C38.4121 61.7714 40.5037 60.5183 42.0911 60.5153C42.8374 60.5135 45.1646 61.3003 47.2623 62.2634Z" fill="#FF9600"/>
<path fill-rule="evenodd" clip-rule="evenodd" d="M52.5553 0.483293C26.6427 4.67314 7.15418 23.0455 1.61039 48.5105C0.232408 54.8391 0.232408 66.1854 1.61039 72.5139C6.89638 96.7961 24.9275 114.714 49.3766 119.982C55.6973 121.344 67.1216 121.339 73.5321 119.972C86.1905 117.273 96.4619 111.623 105.3 102.5C113.712 93.8143 118.742 84.3778 121.283 72.5139C122.574 66.4866 122.669 55.7138 121.486 49.4589C116.855 24.9757 97.4486 5.61722 72.7958 0.889013C67.6363 -0.100149 57.4304 -0.305176 52.5553 0.483293ZM64.3185 28.9072C69.2861 29.8109 73.4968 32.9995 76.0033 37.7554C77.2744 40.1668 77.3743 40.6718 77.3743 44.6908C77.3743 48.7129 77.2748 49.214 75.9972 51.644C69.6307 63.7506 53.2781 63.7506 46.9116 51.644C45.6318 49.2097 45.5349 48.7203 45.5419 44.6908C45.5484 40.8322 45.6824 40.0896 46.7602 37.9297C48.9805 33.4811 53.34 30.0125 57.9525 29.0251C61.0823 28.3549 61.2659 28.3515 64.3185 28.9072ZM58.069 37.3883C53.6454 39.5552 52.0161 45.0406 54.6452 48.9171C58.9348 55.2426 68.5908 53.0411 69.2119 45.5959C69.4636 42.5825 69.1644 41.4208 67.6887 39.6778C65.3825 36.9544 61.057 35.9249 58.069 37.3883ZM47.2623 62.2634C57.019 66.7424 65.3018 66.7935 75.2015 62.4355C77.6042 61.3779 80.156 60.5135 80.8722 60.5153C82.4112 60.5183 84.5067 61.7892 85.2919 63.1954C86.0518 64.5564 86.0221 67.2218 85.23 68.7441C84.4932 70.1598 78.3457 73.4563 74.2205 74.6479L71.8148 75.3427L75.9653 79.5226C78.248 81.8217 80.3335 84.1286 80.5996 84.6492C81.8912 87.1754 80.4735 90.8611 77.7795 91.9799C74.7788 93.2257 73.6133 92.6067 67.2342 86.3782L61.4544 80.735L55.6746 86.3782C49.2955 92.6067 48.1299 93.2257 45.1292 91.9799C42.4352 90.8611 41.0175 87.1754 42.3092 84.6492C42.5752 84.1286 44.6507 81.8317 46.9208 79.5451L51.0486 75.3882L48.0724 74.4025C43.3936 72.8529 38.3951 70.1204 37.6618 68.7112C36.8849 67.2179 36.8626 64.5456 37.6169 63.1954C38.4121 61.7714 40.5037 60.5183 42.0911 60.5153C42.8374 60.5135 45.1646 61.3003 47.2623 62.2634Z" fill="url(#paint0_linear)" fill-opacity="0.3"/>
<defs>
<linearGradient id="paint0_linear" x1="61.4462" y1="0" x2="61.4462" y2="121" gradientUnits="userSpaceOnUse">
<stop stop-color="white"/>
<stop offset="1" stop-color="white" stop-opacity="0"/>
</linearGradient>
</defs>
</svg>
