<svg width="122" height="121" viewBox="0 0 122 121" fill="none" xmlns="http://www.w3.org/2000/svg">
<path d="M60.8076 121C94.2208 121 121.308 93.9132 121.308 60.5C121.308 27.0868 94.2208 0 60.8076 0C27.3944 0 0.307617 27.0868 0.307617 60.5C0.307617 93.9132 27.3944 121 60.8076 121Z" fill="#0394DB"/>
<path d="M60.8076 121C94.2208 121 121.308 93.9132 121.308 60.5C121.308 27.0868 94.2208 0 60.8076 0C27.3944 0 0.307617 27.0868 0.307617 60.5C0.307617 93.9132 27.3944 121 60.8076 121Z" fill="url(#paint0_linear)" fill-opacity="0.4"/>
<path d="M27.9916 59.189L86.3237 36.6981C89.0311 35.72 91.3956 37.3586 90.5184 41.4524L90.5234 41.4474L80.5913 88.2391C79.8553 91.5565 77.884 92.3632 75.1262 90.8003L60.0012 79.6531L52.7059 86.6812C51.8992 87.4879 51.2186 88.1685 49.6557 88.1685L50.7296 72.7763L78.7612 47.452C79.9813 46.3781 78.489 45.7731 76.8807 46.842L42.2394 68.6522L27.306 63.9937C24.0642 62.9652 23.9936 60.7519 27.9916 59.189V59.189Z" fill="white"/>
<defs>
<linearGradient id="paint0_linear" x1="60.8076" y1="0" x2="60.8076" y2="121" gradientUnits="userSpaceOnUse">
<stop stop-color="white"/>
<stop offset="1" stop-color="white" stop-opacity="0"/>
</linearGradient>
</defs>
</svg>
