<svg width="121" height="121" viewBox="0 0 121 121" fill="none" xmlns="http://www.w3.org/2000/svg">
<rect x="15.125" y="30.25" width="90.75" height="75.625" fill="white"/>
<path fill-rule="evenodd" clip-rule="evenodd" d="M8.81364 1.45445C5.14751 3.21743 2.99402 5.39935 1.28574 9.0816L0 11.8544V60.504V109.154L1.28574 111.926C2.99502 115.611 5.14953 117.792 8.81364 119.55L11.8389 121H60.4955H109.152L112.177 119.55C115.841 117.792 117.996 115.611 119.705 111.926L120.991 109.154L120.995 60.504L121 11.8544L119.549 8.82953C117.908 5.40692 115.741 3.15693 112.429 1.43731L110.16 0.259129L60.9997 0.129564L11.8389 0L8.81364 1.45445ZM63.4875 35.8505C64.5998 36.1837 65.947 36.8638 66.481 37.3609C67.7602 38.5527 68.2397 42.2778 67.797 47.5884C67.3528 52.9258 67.8756 57.6471 69.0757 59.1237L69.9918 60.252L71.4202 59.1988C73.8006 57.4439 76.4467 53.5434 80.1507 46.3296C82.0894 42.5536 84.0079 39.1889 84.4138 38.8522C85.2569 38.1524 100.822 37.8595 102.723 38.5073C105.843 39.5706 102.974 45.9253 94.6226 56.4533C90.9832 61.0404 89.999 62.9879 90.4371 64.7343C90.6187 65.4562 93.3817 68.7654 96.5779 72.0892C102.269 78.0068 103.858 80.3682 103.858 82.9106C103.858 85.3098 102.236 85.7736 93.6848 85.821C88.8716 85.8477 85.4172 85.6425 84.5237 85.2775C83.7346 84.9549 80.6887 82.3117 77.7557 79.4038C72.0192 73.7166 70.7552 73.1136 69.2824 75.3621C68.8331 76.0472 68.2301 78.3728 67.9427 80.5295C67.62 82.9484 67.1188 84.6922 66.6343 85.0809C65.524 85.9717 57.3688 85.8881 53.6684 84.9473C47.7737 83.449 43.4879 80.888 38.5622 75.9202C30.7872 68.0782 17.9394 47.1397 17.2723 41.2242C16.9446 38.3168 17.1084 38.2543 25.8545 37.9382C32.5192 37.6977 32.8616 37.734 34.0006 38.8038C35.0604 39.7989 37.6234 44.6271 41.5159 52.9606C43.4268 57.0517 46.1072 59.9999 47.9164 59.9999C50.3063 59.9999 50.9174 58.1235 50.9043 50.8245C50.8912 43.334 49.9836 40.5299 47.4066 40.0147C45.5743 39.6482 45.5123 39.3306 47.0078 37.9684C48.7816 36.3531 50.2267 35.7673 53.5928 35.3C57.2004 34.7989 60.6094 34.9884 63.4875 35.8505Z" fill="#4D76A1"/>
<path fill-rule="evenodd" clip-rule="evenodd" d="M8.81364 1.45445C5.14751 3.21743 2.99402 5.39935 1.28574 9.0816L0 11.8544V60.504V109.154L1.28574 111.926C2.99502 115.611 5.14953 117.792 8.81364 119.55L11.8389 121H60.4955H109.152L112.177 119.55C115.841 117.792 117.996 115.611 119.705 111.926L120.991 109.154L120.995 60.504L121 11.8544L119.549 8.82953C117.908 5.40692 115.741 3.15693 112.429 1.43731L110.16 0.259129L60.9997 0.129564L11.8389 0L8.81364 1.45445ZM63.4875 35.8505C64.5998 36.1837 65.947 36.8638 66.481 37.3609C67.7602 38.5527 68.2397 42.2778 67.797 47.5884C67.3528 52.9258 67.8756 57.6471 69.0757 59.1237L69.9918 60.252L71.4202 59.1988C73.8006 57.4439 76.4467 53.5434 80.1507 46.3296C82.0894 42.5536 84.0079 39.1889 84.4138 38.8522C85.2569 38.1524 100.822 37.8595 102.723 38.5073C105.843 39.5706 102.974 45.9253 94.6226 56.4533C90.9832 61.0404 89.999 62.9879 90.4371 64.7343C90.6187 65.4562 93.3817 68.7654 96.5779 72.0892C102.269 78.0068 103.858 80.3682 103.858 82.9106C103.858 85.3098 102.236 85.7736 93.6848 85.821C88.8716 85.8477 85.4172 85.6425 84.5237 85.2775C83.7346 84.9549 80.6887 82.3117 77.7557 79.4038C72.0192 73.7166 70.7552 73.1136 69.2824 75.3621C68.8331 76.0472 68.2301 78.3728 67.9427 80.5295C67.62 82.9484 67.1188 84.6922 66.6343 85.0809C65.524 85.9717 57.3688 85.8881 53.6684 84.9473C47.7737 83.449 43.4879 80.888 38.5622 75.9202C30.7872 68.0782 17.9394 47.1397 17.2723 41.2242C16.9446 38.3168 17.1084 38.2543 25.8545 37.9382C32.5192 37.6977 32.8616 37.734 34.0006 38.8038C35.0604 39.7989 37.6234 44.6271 41.5159 52.9606C43.4268 57.0517 46.1072 59.9999 47.9164 59.9999C50.3063 59.9999 50.9174 58.1235 50.9043 50.8245C50.8912 43.334 49.9836 40.5299 47.4066 40.0147C45.5743 39.6482 45.5123 39.3306 47.0078 37.9684C48.7816 36.3531 50.2267 35.7673 53.5928 35.3C57.2004 34.7989 60.6094 34.9884 63.4875 35.8505Z" fill="url(#paint0_linear)" fill-opacity="0.3"/>
<defs>
<linearGradient id="paint0_linear" x1="60.5" y1="0" x2="60.5" y2="121" gradientUnits="userSpaceOnUse">
<stop stop-color="white"/>
<stop offset="1" stop-color="white" stop-opacity="0"/>
</linearGradient>
</defs>
</svg>
